#!OML:ASF E:\emotionWalksFemale\Project 1\Capture day 1\Session 1\Female1.ASF
:FULLY-SPECIFIED
:DEGREES
1
root 7.90974 15.0074 42.0652 178.541 -20.1339 -179.233
lowerback 8.05382 2.75873 1.5357
upperback -3.75034 3.84438 -0.0142376
thorax -8.38222 1.77454 -1.45397
lowerneck -3.62806 13.5284 7.4119
upperneck 14.6605 17.6114 -1.38018
head 5.82275 8.77952 -0.407142
rclavicle 5.75916e-014 -6.43565e-015
rhumerus -50.0859 11.0188 -95.9034
rradius 33.9736
rwrist 14.6578
rhand -8.47436 -56.0379
rfingers 7.12502
rthumb 17.4524 -85.2745
lclavicle 5.75916e-014 -6.43565e-015
lhumerus -41.8472 1.36718 84.0927
lradius 34.1965
lwrist -14.2188
lhand -6.67478 -33.9466
lfingers 7.12502
lthumb 19.1836 -4.87269
rfemur -3.9744 4.03626 24.7126
rtibia 30.2883
rfoot -28.8482 -32.2344
rtoes 7.50087
lfemur -12.0082 -24.4059 -23.097
ltibia 34.3682
lfoot -25.6612 3.2516
ltoes -35.5203
2
root 7.90929 15.0081 42.0648 178.552 -20.1236 -179.21
lowerback 8.00829 2.75983 1.55437
upperback -3.75352 3.84639 -0.0195816
thorax -8.35742 1.77469 -1.46775
lowerneck -3.63303 13.4904 7.40147
upperneck 14.6008 17.5682 -1.42857
head 5.80607 8.7559 -0.425615
rclavicle 2.96841e-014 -1.2921e-015
rhumerus -50.0871 11.01 -95.9302
rradius 34.0019
rwrist 14.6421
rhand -8.26962 -56.1286
rfingers 7.12502
rthumb 17.6494 -85.3475
lclavicle 2.96841e-014 -1.2921e-015
lhumerus -41.7898 1.02276 84.2163
lradius 34.0769
lwrist -13.6742
lhand -6.45538 -33.699
lfingers 7.12502
lthumb 19.3946 -4.64624
rfemur -3.9861 4.01419 24.7368
rtibia 30.3081
rfoot -28.8434 -32.2196
rtoes 7.50325
lfemur -12.0464 -24.3789 -23.0641
ltibia 34.3873
lfoot -25.6815 3.23094
ltoes -36.1407
3
root 7.90994 15.0059 42.0669 178.532 -20.1293 -179.089
lowerback 7.98955 2.75387 1.65388
upperback -3.74461 3.85185 0.0137345
thorax -8.33258 1.77336 -1.48744
lowerneck -3.69743 13.4177 7.30352
upperneck 14.4746 17.49 -1.51271
head 5.77164 8.70958 -0.444597
rclavicle -7.19383e-014 -1.36167e-014
rhumerus -50.0523 11.065 -95.9506
rradius 34.027
rwrist 14.5958
rhand -8.03405 -56.2177
rfingers 7.12502
rthumb 17.8761 -85.4161
lclavicle -7.19383e-014 -1.36167e-014
lhumerus -41.8224 1.46093 83.9988
lradius 34.2964
lwrist -13.9242
lhand -6.0088 -33.5428
lfingers 7.12502
lthumb 19.8239 -4.53375
rfemur -4.00178 4.05666 24.8757
rtibia 30.2639
rfoot -28.6926 -32.3662
rtoes 6.48732
lfemur -12.1178 -24.3326 -22.915
ltibia 34.4157
lfoot -25.6477 3.2162
ltoes -36.4417
4
root 7.91043 15.0052 42.0663 178.534 -20.1417 -179.112
lowerback 7.95898 2.75733 1.59465
upperback -3.72679 3.85044 0.031633
thorax -8.30064 1.77733 -1.43305
lowerneck -3.72569 13.3791 7.20517
upperneck 14.3985 17.4492 -1.53172
head 5.74302 8.68499 -0.442052
rclavicle 1.88348e-014 -5.11871e-015
rhumerus -50.037 11.1528 -95.951
rradius 34.0165
rwrist 14.5557
rhand -8.1737 -56.2352
rfingers 7.12502
rthumb 17.7417 -85.4458
lclavicle 1.88348e-014 -5.11871e-015
lhumerus -41.7594 0.952861 84.2838
lradius 34.169
lwrist -13.5058
lhand -6.38813 -33.5306
lfingers 7.12502
lthumb 19.4592 -4.48433
rfemur -3.98689 4.09942 24.8622
rtibia 30.2254
rfoot -28.5978 -32.4777
rtoes 5.84702
lfemur -12.1179 -24.3686 -22.9395
ltibia 34.4298
lfoot -25.6833 3.12652
ltoes -36.1205
5
root 7.91127 15.0061 42.0617 178.564 -20.1208 -179.2
lowerback 7.89608 2.77228 1.47204
upperback -3.72036 3.85398 0.0167039
thorax -8.2638 1.78612 -1.3772
lowerneck -3.70046 13.3728 7.17945
upperneck 14.3798 17.4403 -1.50555
head 5.72782 8.68151 -0.434589
rclavicle -3.27808e-014 -6.13748e-015
rhumerus -50.0568 11.0993 -95.9119
rradius 34.0117
rwrist 14.6776
rhand -8.3381 -56.1953
rfingers 7.12502
rthumb 17.5835 -85.4202
lclavicle -3.27808e-014 -6.13748e-015
lhumerus -41.8319 1.42572 84.0485
lradius 34.3199
lwrist -14.2141
lhand -6.50173 -33.7444
lfingers 7.12502
lthumb 19.35 -4.68716
rfemur -3.95665 4.18791 24.784
rtibia 30.1974
rfoot -28.6361 -32.503
rtoes 6.26261
lfemur -12.0671 -24.3965 -23.0391
ltibia 34.4295
lfoot -25.7425 3.09562
ltoes -35.9832
6
root 7.91166 15.0065 42.059 178.569 -20.1066 -179.194
lowerback 7.86135 2.76886 1.46579
upperback -3.73247 3.84797 0.0212426
thorax -8.25753 1.78353 -1.36646
lowerneck -3.62568 13.3835 7.19393
upperneck 14.3423 17.4591 -1.5208
head 5.70717 8.69137 -0.446243
rclavicle -1.9397e-014 2.75814e-015
rhumerus -50.1159 11.0314 -95.8794
rradius 34.0456
rwrist 14.808
rhand -8.29443 -56.095
rfingers 7.12502
rthumb 17.6255 -85.3161
lclavicle -1.9397e-014 2.75814e-015
lhumerus -41.8057 1.03303 84.2166
lradius 34.17
lwrist -13.6393
lhand -6.50617 -33.6035
lfingers 7.12502
lthumb 19.3457 -4.54581
rfemur -3.94188 4.30241 24.807
rtibia 30.1969
rfoot -28.7511 -32.504
rtoes 6.84871
lfemur -12.0372 -24.3773 -23.0303
ltibia 34.4113
lfoot -25.7561 3.15001
ltoes -35.7429
7
root 7.90973 15.0058 42.0594 178.584 -20.1197 -179.223
lowerback 7.85974 2.74872 1.46982
upperback -3.74979 3.82009 0.00705136
thorax -8.27483 1.7687 -1.38008
lowerneck -3.57482 13.4077 7.26586
upperneck 14.3312 17.4965 -1.57796
head 5.70869 8.70986 -0.472895
rclavicle 9.15341e-015 7.45443e-016
rhumerus -50.1564 11.1138 -95.9481
rradius 34.0468
rwrist 14.7618
rhand -8.23931 -56.0687
rfingers 7.12502
rthumb 17.6786 -85.2851
lclavicle 9.15341e-015 7.45443e-016
lhumerus -41.8181 1.39597 84.0387
lradius 34.2425
lwrist -13.81
lhand -6.24779 -33.3014
lfingers 7.12502
lthumb 19.5941 -4.2688
rfemur -3.94639 4.27061 24.7545
rtibia 30.1994
rfoot -28.8063 -32.4202
rtoes 6.77919
lfemur -12.0571 -24.1988 -23.0457
ltibia 34.3963
lfoot -25.7575 3.00383
ltoes -35.4339
8
root 7.90867 15.0041 42.0606 178.614 -20.1312 -179.236
lowerback 7.85015 2.72019 1.46878
upperback -3.7709 3.77911 -0.0213464
thorax -8.29131 1.74729 -1.40361
lowerneck -3.59241 13.4338 7.37307
upperneck 14.3752 17.5234 -1.59273
head 5.73797 8.72642 -0.485375
rclavicle -3.13987e-014 -5.91384e-015
rhumerus -50.1361 11.1832 -96.0572
rradius 34.0033
rwrist 14.7155
rhand -8.08049 -56.1204
rfingers 7.12502
rthumb 17.8314 -85.3229
lclavicle -3.13987e-014 -5.91384e-015
lhumerus -41.8542 1.08241 84.1202
lradius 34.2296
lwrist -13.482
lhand -6.40011 -33.1738
lfingers 7.12502
lthumb 19.4477 -4.12638
rfemur -3.99699 4.20176 24.7146
rtibia 30.208
rfoot -28.7702 -32.3796
rtoes 6.3227
lfemur -12.1135 -24.0591 -23.029
ltibia 34.3934
lfoot -25.7472 2.74685
ltoes -35.1143
9
root 7.90975 15.0052 42.0588 178.617 -20.1211 -179.178
lowerback 7.83213 2.76267 1.53879
upperback -3.76533 3.84391 -0.0172129
thorax -8.26862 1.77565 -1.44637
lowerneck -3.73467 13.3959 7.22975
upperneck 14.4215 17.4584 -1.45962
head 5.74802 8.69492 -0.421906
rclavicle 1.41914e-014 -3.97569e-016
rhumerus -50.099 11.008 -95.9501
rradius 34.0173
rwrist 14.7911
rhand -7.92916 -56.0993
rfingers 7.12502
rthumb 17.977 -85.2884
lclavicle 1.41914e-014 -3.97569e-016
lhumerus -41.78 1.04315 84.1516
lradius 34.216
lwrist -13.5978
lhand -6.34231 -33.3521
lfingers 7.12502
lthumb 19.5033 -4.31024
rfemur -4.01925 4.23156 24.785
rtibia 30.2213
rfoot -28.7842 -32.3872
rtoes 6.47074
lfemur -12.1451 -24.0599 -22.9515
ltibia 34.3976
lfoot -25.6685 2.69424
ltoes -34.913
10
root 7.91008 15.0055 42.0567 178.584 -20.1293 -179.2
lowerback 7.84285 2.75677 1.48551
upperback -3.75539 3.83168 0.000257987
thorax -8.2692 1.77329 -1.39686
lowerneck -3.69127 13.4007 7.23739
upperneck 14.4047 17.47 -1.48349
head 5.73888 8.69986 -0.43268
rclavicle 3.76014e-014 4.96962e-017
rhumerus -50.1478 10.9894 -95.9062
rradius 34.0746
rwrist 14.7808
rhand -7.85499 -56.0788
rfingers 7.12502
rthumb 18.0484 -85.2614
lclavicle 3.76014e-014 4.96962e-017
lhumerus -41.8221 1.17909 84.1308
lradius 34.2964
lwrist -13.8294
lhand -6.38895 -33.5215
lfingers 7.12502
lthumb 19.4584 -4.47512
rfemur -3.95192 4.22035 24.7724
rtibia 30.2073
rfoot -28.8623 -32.3541
rtoes 7.05993
lfemur -12.1026 -24.0628 -22.9954
ltibia 34.4124
lfoot -25.6094 2.7317
ltoes -34.9181
11
root 7.90905 15.0025 42.0572 178.541 -20.1574 -179.254
lowerback 7.90724 2.73822 1.43188
upperback -3.75346 3.80274 0.00563634
thorax -8.30936 1.76168 -1.36079
lowerneck -3.61447 13.4097 7.28092
upperneck 14.3879 17.4933 -1.56173
head 5.73296 8.70878 -0.465226
rclavicle 2.12141e-015 7.20594e-016
rhumerus -50.1628 11.0601 -95.9071
rradius 34.0835
rwrist 14.6577
rhand -7.76413 -56.0747
rfingers 7.12502
rthumb 18.1358 -85.2493
lclavicle 2.12141e-015 7.20594e-016
lhumerus -41.9019 1.4898 83.9873
lradius 34.2905
lwrist -14.0785
lhand -6.41681 -33.3967
lfingers 7.12502
lthumb 19.4316 -4.3476
rfemur -3.88836 4.19153 24.7185
rtibia 30.1981
rfoot -28.7871 -32.2895
rtoes 7.38282
lfemur -12.0132 -24.3172 -23.1111
ltibia 34.4182
lfoot -25.6684 2.97837
ltoes -35.0394
12
root 7.90793 15.0033 42.0569 178.521 -20.1337 -179.208
lowerback 7.915 2.74869 1.49719
upperback -3.74626 3.82406 -0.000346506
thorax -8.30085 1.76857 -1.40675
lowerneck -3.73078 13.3951 7.31455
upperneck 14.4521 17.4658 -1.56771
head 5.77489 8.69499 -0.462455
rclavicle 4.76555e-014 2.93207e-015
rhumerus -50.0978 11.1039 -95.952
rradius 34.0201
rwrist 14.6519
rhand -7.93124 -56.0283
rfingers 7.12502
rthumb 17.975 -85.2177
lclavicle 4.76555e-014 2.93207e-015
lhumerus -41.8625 1.06665 84.1782
lradius 34.3379
lwrist -13.7982
lhand -6.48568 -33.3657
lfingers 7.12502
lthumb 19.3654 -4.30993
rfemur -3.89575 4.21716 24.7729
rtibia 30.2432
rfoot -28.7279 -32.2057
rtoes 7.53268
lfemur -11.9695 -24.4948 -23.0996
ltibia 34.3899
lfoot -25.7067 3.28441
ltoes -35.5296
13
root 7.90645 15.0056 42.0577 178.581 -20.1038 -179.232
lowerback 7.8673 2.75025 1.50044
upperback -3.73182 3.82298 -0.0353189
thorax -8.25476 1.76791 -1.44198
lowerneck -3.94927 13.4031 7.34183
upperneck 14.5629 17.4529 -1.49421
head 5.84145 8.69219 -0.425111
rclavicle 3.96669e-014 8.00108e-015
rhumerus -49.9994 11.1617 -96.0282
rradius 33.9563
rwrist 14.7074
rhand -8.0945 -56.0299
rfingers 7.12502
rthumb 17.8179 -85.2336
lclavicle 3.96669e-014 8.00108e-015
lhumerus -41.7537 1.5288 83.8581
lradius 34.1706
lwrist -13.9968
lhand -6.16105 -33.8402
lfingers 7.12502
lthumb 19.6775 -4.81608
rfemur -3.96163 4.18398 24.7356
rtibia 30.3012
rfoot -28.8934 -32.2352
rtoes 7.38323
lfemur -12.0176 -24.2577 -23.0873
ltibia 34.3486
lfoot -25.6844 3.11251
ltoes -35.7218
14
root 7.9053 15.0052 42.0595 178.703 -20.1073 -179.352
lowerback 7.79745 2.75828 1.39579
upperback -3.78296 3.81803 -0.0547236
thorax -8.27483 1.76938 -1.40112
lowerneck -3.89343 13.4107 7.1995
upperneck 14.5848 17.4497 -1.30536
head 5.80897 8.69564 -0.35588
rclavicle 4.42793e-014 3.62782e-015
rhumerus -50.068 11.1845 -96.0332
rradius 33.9472
rwrist 14.7016
rhand -8.13046 -55.9305
rfingers 7.12502
rthumb 17.7833 -85.1373
lclavicle 4.42793e-014 3.62782e-015
lhumerus -41.7851 1.52777 83.8773
lradius 34.0832
lwrist -13.8012
lhand -5.86072 -34.0117
lfingers 7.12502
lthumb 19.9662 -5.01744
rfemur -4.07218 4.10967 24.581
rtibia 30.3279
rfoot -28.9341 -32.2934
rtoes 7.13265
lfemur -12.1166 -24.0615 -23.154
ltibia 34.3275
lfoot -25.6702 2.8515
ltoes -36.4509
